<svg xmlns="http://www.w3.org/2000/svg" version="1.1" xmlns:xlink="http://www.w3.org/1999/xlink" xmlns:svgjs="http://svgjs.dev/svgjs" width="128" height="128" viewBox="0 0 128 128"><g transform="matrix(0.8046875,0,0,0.8046875,12.333870967741937,36.358520304248884)"><svg viewBox="0 0 155 84" data-background-color="#122442" preserveAspectRatio="xMidYMid meet" height="69" width="128" xmlns="http://www.w3.org/2000/svg" xmlns:xlink="http://www.w3.org/1999/xlink"><g id="tight-bounds" transform="matrix(1,0,0,1,0.25,-0.18190661478598713)"><svg viewBox="0 0 154.50000000000003 84.36381322957199" height="84.36381322957199" width="154.50000000000003"><g><svg viewBox="0 0 154.50000000000003 84.36381322957199" height="84.36381322957199" width="154.50000000000003"><g><svg viewBox="0 0 154.50000000000003 84.36381322957199" height="84.36381322957199" width="154.50000000000003"><g id="textblocktransform"><svg viewBox="0 0 154.50000000000003 84.36381322957199" height="84.36381322957199" width="154.50000000000003" id="textblock"><g><svg viewBox="0 0 154.50000000000003 84.36381322957199" height="84.36381322957199" width="154.50000000000003"><g transform="matrix(1,0,0,1,0,0)"><svg width="154.50000000000003" viewBox="-3.5 -39.1 77.1 42.1" height="84.36381322957199" data-palette-color="#ff4057"><path d="M43.2-37.1L43.2-37.1Q40.6-33.35 37.4-27.6 34.2-21.85 32.3-17.95L32.3-17.95 30.4-14.05Q25.25-3.35 25.25 1.3L25.25 1.3Q25.25 1.4 25.28 1.7 25.3 2 25.3 2.2L25.3 2.2Q25.3 3 24.85 3L24.85 3Q24 3 23 1.53 22 0.05 22-2.4L22-2.4Q22-4.65 23.08-7.9 24.15-11.15 26.25-15.33 28.35-19.5 29.78-22.05 31.2-24.6 33.55-28.7L33.55-28.7Q33.7-29 33.7-29.15L33.7-29.15Q33.6-29.4 33.45-29.4L33.45-29.4Q33.15-29.4 32.85-29.15L32.85-29.15Q29.9-26.75 25.1-21 20.3-15.25 17-10.7L17-10.7 13.65-6.15Q12.85-4.95 12.35-4.95L12.35-4.95Q12.2-4.95 12.1-5.05 12-5.15 11.95-5.33 11.9-5.5 11.88-5.65 11.85-5.8 11.85-5.9L11.85-5.9 11.85-6Q12.2-9.1 12.88-14.65 13.55-20.2 14-24 14.45-27.8 14.45-27.9L14.45-27.9Q14.45-28.4 14.25-28.4L14.25-28.4Q14.15-28.4 13.98-28.25 13.8-28.1 13.7-27.95L13.7-27.95 13.6-27.8Q11.45-24.6 9-19.53 6.55-14.45 5.05-10.55L5.05-10.55Q3.95-7.75 2.8-5.43 1.65-3.1 0.78-1.83-0.1-0.55-0.83 0.33-1.55 1.2-1.95 1.5L-1.95 1.5-2.35 1.8Q-2.9 2.25-3.2 2.25-3.5 2.25-3.5 1.75L-3.5 1.75-3.45 1.3Q-2.95-1.35 0.93-8.8 4.8-16.25 8.45-22.4L8.45-22.4 12.1-28.5 14.85-33.25Q16.9-39.1 18-39.1L18-39.1Q18.75-39.1 18.75-36.55L18.75-36.55Q17.2-17.95 17.2-15.3L17.2-15.3Q17.2-14.55 17.5-14.55 17.8-14.55 18.2-15.1L18.2-15.1Q18.85-15.95 20-17.4 21.15-18.85 24.4-22.6 27.65-26.35 30.53-29.35 33.4-32.35 36.8-35.1 40.2-37.85 42.4-38.45L42.4-38.45Q42.9-38.55 43.05-38.55L43.05-38.55Q43.65-38.55 43.65-38.1L43.65-38.1Q43.65-37.7 43.2-37.1ZM73.15-37.1L73.15-37.1Q70.55-33.35 67.35-27.6 64.15-21.85 62.25-17.95L62.25-17.95 60.35-14.05Q55.2-3.35 55.2 1.3L55.2 1.3Q55.2 1.4 55.22 1.7 55.25 2 55.25 2.2L55.25 2.2Q55.25 3 54.8 3L54.8 3Q53.95 3 52.95 1.53 51.95 0.05 51.95-2.4L51.95-2.4Q51.95-4.65 53.02-7.9 54.1-11.15 56.2-15.33 58.3-19.5 59.72-22.05 61.15-24.6 63.5-28.7L63.5-28.7Q63.65-29 63.65-29.15L63.65-29.15Q63.55-29.4 63.4-29.4L63.4-29.4Q63.1-29.4 62.8-29.15L62.8-29.15Q59.85-26.75 55.05-21 50.25-15.25 46.95-10.7L46.95-10.7 43.6-6.15Q42.8-4.95 42.3-4.95L42.3-4.95Q42.15-4.95 42.05-5.05 41.95-5.15 41.9-5.33 41.85-5.5 41.82-5.65 41.8-5.8 41.8-5.9L41.8-5.9 41.8-6Q42.15-9.1 42.82-14.65 43.5-20.2 43.95-24 44.4-27.8 44.4-27.9L44.4-27.9Q44.4-28.4 44.2-28.4L44.2-28.4Q44.1-28.4 43.92-28.25 43.75-28.1 43.65-27.95L43.65-27.95 43.55-27.8Q41.4-24.6 38.95-19.53 36.5-14.45 35-10.55L35-10.55Q33.9-7.75 32.75-5.43 31.6-3.1 30.72-1.83 29.85-0.55 29.12 0.33 28.4 1.2 28 1.5L28 1.5 27.6 1.8Q27.05 2.25 26.75 2.25 26.45 2.25 26.45 1.75L26.45 1.75 26.5 1.3Q27-1.35 30.87-8.8 34.75-16.25 38.4-22.4L38.4-22.4 42.05-28.5 44.8-33.25Q46.85-39.1 47.95-39.1L47.95-39.1Q48.7-39.1 48.7-36.55L48.7-36.55Q47.15-17.95 47.15-15.3L47.15-15.3Q47.15-14.55 47.45-14.55 47.75-14.55 48.15-15.1L48.15-15.1Q48.8-15.95 49.95-17.4 51.1-18.85 54.35-22.6 57.6-26.35 60.47-29.35 63.35-32.35 66.75-35.1 70.15-37.85 72.35-38.45L72.35-38.45Q72.85-38.55 73-38.55L73-38.55Q73.6-38.55 73.6-38.1L73.6-38.1Q73.6-37.7 73.15-37.1Z" opacity="1" transform="matrix(1,0,0,1,0,0)" fill="#ff4057" class="wordmark-text-0" data-fill-palette-color="primary" id="text-0"></path></svg></g></svg></g></svg></g></svg></g></svg></g><defs></defs></svg><rect width="154.50000000000003" height="84.36381322957199" fill="none" stroke="none" visibility="hidden"></rect></g></svg></g></svg>