<svg xmlns="http://www.w3.org/2000/svg" version="1.1" xmlns:xlink="http://www.w3.org/1999/xlink" xmlns:svgjs="http://svgjs.dev/svgjs" width="1500" height="651" viewBox="0 0 1500 651"><g transform="matrix(1,0,0,1,-0.9090909090909918,-0.6022540250447719)"><svg viewBox="0 0 396 172" data-background-color="#122442" preserveAspectRatio="xMidYMid meet" height="651" width="1500" xmlns="http://www.w3.org/2000/svg" xmlns:xlink="http://www.w3.org/1999/xlink"><g id="tight-bounds" transform="matrix(1,0,0,1,0.2400000000000091,0.15912087912089135)"><svg viewBox="0 0 395.52 171.68175824175822" height="171.68175824175822" width="395.52"><g><svg viewBox="0 0 395.52000000000004 171.68175824175825" height="171.68175824175822" width="395.52"><g><svg viewBox="0 0 395.52000000000004 171.68175824175825" height="171.68175824175825" width="395.52000000000004"><g id="textblocktransform"><svg viewBox="0 0 395.52000000000004 171.68175824175825" height="171.68175824175825" width="395.52000000000004" id="textblock"><g><svg viewBox="0 0 395.52000000000004 171.68175824175825" height="171.68175824175825" width="395.52000000000004"><g transform="matrix(1,0,0,1,0,0)"><svg width="395.52000000000004" viewBox="-3.5 -46 172.88 75.05000000000001" height="171.68175824175825" data-palette-color="#ff4057"><path d="M43.2-37.1L43.2-37.1Q40.6-33.35 37.4-27.6 34.2-21.85 32.3-17.95L32.3-17.95 30.4-14.05Q25.25-3.35 25.25 1.3L25.25 1.3Q25.25 1.4 25.28 1.7 25.3 2 25.3 2.2L25.3 2.2Q25.3 3 24.85 3L24.85 3Q24 3 23 1.53 22 0.05 22-2.4L22-2.4Q22-4.65 23.08-7.9 24.15-11.15 26.25-15.33 28.35-19.5 29.78-22.05 31.2-24.6 33.55-28.7L33.55-28.7Q33.7-29 33.7-29.15L33.7-29.15Q33.6-29.4 33.45-29.4L33.45-29.4Q33.15-29.4 32.85-29.15L32.85-29.15Q29.9-26.75 25.1-21 20.3-15.25 17-10.7L17-10.7 13.65-6.15Q12.85-4.95 12.35-4.95L12.35-4.95Q12.2-4.95 12.1-5.05 12-5.15 11.95-5.33 11.9-5.5 11.88-5.65 11.85-5.8 11.85-5.9L11.85-5.9 11.85-6Q12.2-9.1 12.88-14.65 13.55-20.2 14-24 14.45-27.8 14.45-27.9L14.45-27.9Q14.45-28.4 14.25-28.4L14.25-28.4Q14.15-28.4 13.98-28.25 13.8-28.1 13.7-27.95L13.7-27.95 13.6-27.8Q11.45-24.6 9-19.53 6.55-14.45 5.05-10.55L5.05-10.55Q3.95-7.75 2.8-5.43 1.65-3.1 0.78-1.83-0.1-0.55-0.83 0.33-1.55 1.2-1.95 1.5L-1.95 1.5-2.35 1.8Q-2.9 2.25-3.2 2.25-3.5 2.25-3.5 1.75L-3.5 1.75-3.45 1.3Q-2.95-1.35 0.93-8.8 4.8-16.25 8.45-22.4L8.45-22.4 12.1-28.5 14.85-33.25Q16.9-39.1 18-39.1L18-39.1Q18.75-39.1 18.75-36.55L18.75-36.55Q17.2-17.95 17.2-15.3L17.2-15.3Q17.2-14.55 17.5-14.55 17.8-14.55 18.2-15.1L18.2-15.1Q18.85-15.95 20-17.4 21.15-18.85 24.4-22.6 27.65-26.35 30.53-29.35 33.4-32.35 36.8-35.1 40.2-37.85 42.4-38.45L42.4-38.45Q42.9-38.55 43.05-38.55L43.05-38.55Q43.65-38.55 43.65-38.1L43.65-38.1Q43.65-37.7 43.2-37.1ZM40.7-7.1L40.7-7.1 42.8-11.2Q42.8-11.35 42.7-11.35 42.6-11.35 42.45-11.2L42.45-11.2Q40.6-9.05 38.55-6.98 36.5-4.9 35.4-3.9L35.4-3.9 34.3-2.9Q30.55 0.65 29 0.65L29 0.65Q28.3 0.65 28.3-0.25L28.3-0.25Q28.3-1.25 29.1-3.28 29.9-5.3 30.7-6.8L30.7-6.8 31.5-8.35Q35.7-16.2 37.7-18.85L37.7-18.85Q38.7-20.15 40.15-21.03 41.6-21.9 42.4-21.9L42.4-21.9Q42.9-21.9 42.9-21.55L42.9-21.55Q42.9-21.35 42.7-21L42.7-21Q42.6-20.8 40.65-17.68 38.7-14.55 37.5-12.3L37.5-12.3Q34.2-6.25 34.2-5.35L34.2-5.35Q34.2-5 34.5-5L34.5-5Q34.95-5 36.05-5.9L36.05-5.9Q39.3-8.7 43.2-13.45L43.2-13.45Q45.35-15.75 47.7-19.45L47.7-19.45Q48.35-20.45 49.62-21.18 50.9-21.9 51.95-21.9L51.95-21.9Q52.4-21.9 52.4-21.5L52.4-21.5 52-20.55Q51.3-19.3 48.87-15.08 46.45-10.85 46.15-10.3L46.15-10.3Q45.75-9.55 44.32-7.08 42.9-4.6 42.3-3.55L42.3-3.55Q45.45-6.1 47.5-7.95L47.5-7.95Q49.7-10.25 52.65-13.6L52.65-13.6Q52.8-13.75 52.9-13.75 53-13.75 53-13.55L53-13.55Q53-12.6 52.25-11.7L52.25-11.7Q50.05-9.3 48.45-7.6L48.45-7.6Q46.35-5.4 40.95-1.2L40.95-1.2 39.65 1.2Q30 18.95 26.35 24.3L26.35 24.3Q26 24.85 25.45 25.63 24.9 26.4 23.65 27.73 22.4 29.05 21.65 29.05L21.65 29.05Q20.45 29.05 20.45 25.6L20.45 25.6Q20.45 20.5 24.1 14.5L24.1 14.5Q28.05 8.05 36.3 1.25L36.3 1.25Q37.95-1.75 40.7-7.1ZM25.35 14.4L25.35 14.4Q24.95 15 24.4 15.98 23.85 16.95 22.9 19.33 21.95 21.7 21.95 23.3L21.95 23.3Q21.95 24.15 22.25 24.15L22.25 24.15Q22.5 24.15 23 23.68 23.5 23.2 23.85 22.7L23.85 22.7 24.2 22.2Q29.15 14.45 34.95 3.7L34.95 3.7Q28.45 9.4 25.35 14.4ZM100.09-37.1L100.09-37.1Q97.49-33.35 94.29-27.6 91.09-21.85 89.19-17.95L89.19-17.95 87.29-14.05Q82.14-3.35 82.14 1.3L82.14 1.3Q82.14 1.4 82.17 1.7 82.19 2 82.19 2.2L82.19 2.2Q82.19 3 81.74 3L81.74 3Q80.89 3 79.89 1.53 78.89 0.05 78.89-2.4L78.89-2.4Q78.89-4.65 79.97-7.9 81.04-11.15 83.14-15.33 85.24-19.5 86.67-22.05 88.09-24.6 90.44-28.7L90.44-28.7Q90.59-29 90.59-29.15L90.59-29.15Q90.49-29.4 90.34-29.4L90.34-29.4Q90.04-29.4 89.74-29.15L89.74-29.15Q86.79-26.75 81.99-21 77.19-15.25 73.89-10.7L73.89-10.7 70.54-6.15Q69.74-4.95 69.24-4.95L69.24-4.95Q69.09-4.95 68.99-5.05 68.89-5.15 68.84-5.33 68.79-5.5 68.77-5.65 68.74-5.8 68.74-5.9L68.74-5.9 68.74-6Q69.09-9.1 69.77-14.65 70.44-20.2 70.89-24 71.34-27.8 71.34-27.9L71.34-27.9Q71.34-28.4 71.14-28.4L71.14-28.4Q71.04-28.4 70.87-28.25 70.69-28.1 70.59-27.95L70.59-27.95 70.49-27.8Q68.34-24.6 65.89-19.53 63.44-14.45 61.94-10.55L61.94-10.55Q60.84-7.75 59.69-5.43 58.54-3.1 57.67-1.83 56.79-0.55 56.07 0.33 55.34 1.2 54.94 1.5L54.94 1.5 54.54 1.8Q53.99 2.25 53.69 2.25 53.39 2.25 53.39 1.75L53.39 1.75 53.44 1.3Q53.94-1.35 57.82-8.8 61.69-16.25 65.34-22.4L65.34-22.4 68.99-28.5 71.74-33.25Q73.79-39.1 74.89-39.1L74.89-39.1Q75.64-39.1 75.64-36.55L75.64-36.55Q74.09-17.95 74.09-15.3L74.09-15.3Q74.09-14.55 74.39-14.55 74.69-14.55 75.09-15.1L75.09-15.1Q75.74-15.95 76.89-17.4 78.04-18.85 81.29-22.6 84.54-26.35 87.42-29.35 90.29-32.35 93.69-35.1 97.09-37.85 99.29-38.45L99.29-38.45Q99.79-38.55 99.94-38.55L99.94-38.55Q100.54-38.55 100.54-38.1L100.54-38.1Q100.54-37.7 100.09-37.1ZM100.59-16.95L100.59-16.95Q101.19-18.2 101.19-19.15L101.19-19.15Q101.19-19.95 100.69-19.95L100.69-19.95Q100.39-19.95 100.02-19.78 99.64-19.6 99.44-19.4L99.44-19.4 99.19-19.2Q97.64-17.85 95.31-14.28 92.99-10.7 92.99-9.7L92.99-9.7Q92.99-9.5 93.09-9.5L93.09-9.5Q93.39-9.5 94.42-10 95.44-10.5 97.37-12.35 99.29-14.2 100.59-16.95ZM98.34-5.5L98.34-5.5Q100.99-7.95 105.94-13.6L105.94-13.6Q106.09-13.75 106.19-13.75 106.29-13.75 106.29-13.55L106.29-13.55Q106.29-12.6 105.54-11.7L105.54-11.7Q101.84-7.6 98.99-4.85L98.99-4.85Q96.89-2.75 93.99-0.83 91.09 1.1 89.19 1.1L89.19 1.1Q86.89 1.1 86.89-2.1L86.89-2.1Q86.89-7.4 90.81-13.2 94.74-19 99.89-21.05L99.89-21.05Q102.04-21.95 103.79-21.95L103.79-21.95Q105.74-21.95 105.74-20.4L105.74-20.4Q105.74-17.5 101.64-13.75 97.54-10 92.44-8.05L92.44-8.05Q92.24-8 92.09-7.7L92.09-7.7Q91.34-5.65 91.34-4.05L91.34-4.05Q91.34-2.25 92.69-2.25L92.69-2.25Q94.84-2.25 98.34-5.5ZM115.74-24.35L115.74-24.35Q119.29-26.85 122.11-30.03 124.94-33.2 126.41-35.88 127.89-38.55 128.64-40.5 129.39-42.45 129.39-43.3L129.39-43.3Q129.39-43.8 129.04-43.8L129.04-43.8Q128.34-43.8 127.34-42.8L127.34-42.8Q125.44-40.9 123.04-37.3 120.64-33.7 119.16-31.13 117.69-28.55 115.34-24.25L115.34-24.25Q115.54-24.25 115.74-24.35ZM110.39-7.55L110.39-7.55Q112.49-9.65 115.94-13.6L115.94-13.6Q116.09-13.75 116.19-13.75 116.29-13.75 116.29-13.55L116.29-13.55Q116.29-12.6 115.54-11.7L115.54-11.7Q111.84-7.6 108.99-4.85L108.99-4.85Q102.74 1.05 101.04 1.05L101.04 1.05Q100.29 1.05 100.29 0L100.29 0Q100.29-0.55 100.41-1.2 100.54-1.85 100.84-2.63 101.14-3.4 101.36-3.93 101.59-4.45 102.01-5.43 102.44-6.4 102.59-6.75L102.59-6.75Q103.99-9.9 111.19-23.35L111.19-23.35Q121.04-41.3 129.29-45.4L129.29-45.4Q130.49-46 131.69-46L131.69-46Q133.09-46 133.09-44.7L133.09-44.7Q133.09-41.7 131.04-38.13 128.99-34.55 126.04-31.55 123.09-28.55 120.26-26.3 117.44-24.05 115.39-22.9L115.39-22.9Q115.09-22.8 114.84-22.45L114.84-22.45Q112.64-18.9 110.54-14.83 108.44-10.75 107.39-8.4L107.39-8.4 106.39-6.1Q106.14-5.35 106.14-5.1L106.14-5.1Q106.14-4.65 106.49-4.65L106.49-4.65Q107.49-4.65 110.39-7.55ZM127.28-24.35L127.28-24.35Q130.84-26.85 133.66-30.03 136.49-33.2 137.96-35.88 139.44-38.55 140.19-40.5 140.94-42.45 140.94-43.3L140.94-43.3Q140.94-43.8 140.59-43.8L140.59-43.8Q139.88-43.8 138.88-42.8L138.88-42.8Q136.99-40.9 134.59-37.3 132.19-33.7 130.71-31.13 129.24-28.55 126.89-24.25L126.89-24.25Q127.09-24.25 127.28-24.35ZM121.94-7.55L121.94-7.55Q124.03-9.65 127.48-13.6L127.48-13.6Q127.64-13.75 127.73-13.75 127.84-13.75 127.84-13.55L127.84-13.55Q127.84-12.6 127.09-11.7L127.09-11.7Q123.39-7.6 120.53-4.85L120.53-4.85Q114.28 1.05 112.58 1.05L112.58 1.05Q111.83 1.05 111.83 0L111.83 0Q111.83-0.55 111.96-1.2 112.08-1.85 112.39-2.63 112.69-3.4 112.91-3.93 113.14-4.45 113.56-5.43 113.98-6.4 114.14-6.75L114.14-6.75Q115.53-9.9 122.73-23.35L122.73-23.35Q132.59-41.3 140.84-45.4L140.84-45.4Q142.03-46 143.24-46L143.24-46Q144.63-46 144.63-44.7L144.63-44.7Q144.63-41.7 142.59-38.13 140.53-34.55 137.59-31.55 134.63-28.55 131.81-26.3 128.99-24.05 126.94-22.9L126.94-22.9Q126.64-22.8 126.39-22.45L126.39-22.45Q124.19-18.9 122.08-14.83 119.98-10.75 118.94-8.4L118.94-8.4 117.94-6.1Q117.69-5.35 117.69-5.1L117.69-5.1Q117.69-4.65 118.03-4.65L118.03-4.65Q119.03-4.65 121.94-7.55ZM144.58-17.6L144.58-17.6Q145.03-17.5 145.03-17.3L145.03-17.3Q145.03-17 144.63-16.6L144.63-16.6Q144.08-16.05 143.01-15.15 141.93-14.25 141.73-14.05L141.73-14.05 141.03-13.1Q139.98-10.15 137.81-6.98 135.63-3.8 132.51-1.4 129.38 1 126.53 1L126.53 1Q122.98 1 122.98-3.35L122.98-3.35Q122.98-7.2 125.48-11.68 127.98-16.15 131.96-19.33 135.93-22.5 139.78-22.5L139.78-22.5Q142.58-22.5 142.58-20.3L142.58-20.3Q142.58-19.1 141.38-17.05L141.38-17.05Q141.33-17 141.33-16.9 141.33-16.8 141.43-16.8L141.43-16.8Q143.28-17.55 144.58-17.6ZM139.83-16.4L139.83-16.4Q140.23-18.15 140.23-19.1L140.23-19.1Q140.23-21.2 138.83-21.2L138.83-21.2Q136.88-21.2 133.98-17.6 131.08-14 129.01-9.5 126.93-5 126.93-2.4L126.93-2.4Q126.93-0.5 128.28-0.5L128.28-0.5Q130.38-0.5 133.31-4.7 136.23-8.9 136.83-13.15L136.83-13.15Q136.78-13.25 136.78-13.45L136.78-13.45Q136.78-14.9 139.38-16.05L139.38-16.05Q139.78-16.2 139.83-16.4ZM160.63-9.55L160.38-9.4Q157.63-6 155.31-3.48 152.98-0.95 152.03-0.1L152.03-0.1 151.08 0.7Q150.28 1.35 149.83 1.35L149.83 1.35Q149.28 1.35 149.28 0.45L149.28 0.45Q149.28-1.7 151.58-9.1L151.58-9.1 151.28-8.95Q148.73-5.8 146.5-3.38 144.28-0.95 143.33-0.1L143.33-0.1 142.38 0.7Q141.58 1.35 141.13 1.35L141.13 1.35Q140.58 1.35 140.58 0.45L140.58 0.45Q140.58-2.05 142.78-8.72 144.98-15.4 147.08-19.35L147.08-19.35Q147.63-20.4 148.68-21.15 149.73-21.9 150.93-21.9L150.93-21.9Q151.28-21.9 151.28-21.6 151.28-21.3 150.88-20.5L150.88-20.5Q149.48-17.6 147.43-12.13 145.38-6.65 145.38-4.55L145.38-4.55Q145.38-4.3 145.48-4.3L145.48-4.3Q145.68-4.3 146.18-4.85L146.18-4.85Q146.78-5.4 147.73-6.35 148.68-7.3 150.63-9.73 152.58-12.15 153.38-14L153.38-14 155.78-19.35Q156.58-20.65 157.6-21.28 158.63-21.9 159.43-21.9L159.43-21.9Q160.03-21.9 160.03-21.6L160.03-21.6Q160.03-21.4 159.58-20.5L159.58-20.5Q155.23-11.45 154.13-5.05L154.13-5.05Q154.08-4.85 154.08-4.65L154.08-4.65Q154.08-4.35 154.23-4.35L154.23-4.35Q154.58-4.35 156.73-6.68 158.88-9 159.63-10.2L159.63-10.2Q159.73-10.4 159.73-10.6L159.73-10.6Q159.53-11.05 159.53-11.8L159.53-11.8Q159.53-14.8 162.56-18.48 165.58-22.15 168.68-23.3L168.68-23.3Q168.98-23.4 169.08-23.4L169.08-23.4Q169.38-23.4 169.38-23.15L169.38-23.15Q169.33-21.75 161.83-11.1L161.83-11.1Q161.68-10.9 161.68-10.8L161.68-10.8Q161.68-10.6 161.83-10.55L161.83-10.55Q162.43-10.25 163.03-10.25L163.03-10.25Q165.28-10.25 168.43-14L168.43-14Q168.53-14.1 168.58-14.1L168.58-14.1Q168.83-14.1 168.83-13.55 168.83-13 167.63-11.65L167.63-11.65Q165.43-9.15 162.58-9.15L162.58-9.15Q161.58-9.15 160.63-9.55L160.63-9.55Z" opacity="1" transform="matrix(1,0,0,1,0,0)" fill="#ff4057" class="wordmark-text-0" data-fill-palette-color="primary" id="text-0"></path></svg></g></svg></g></svg></g></svg></g></svg></g><defs></defs></svg><rect width="395.52" height="171.68175824175822" fill="none" stroke="none" visibility="hidden"></rect></g></svg></g></svg>